<?xml version="1.0" encoding="UTF-8" standalone="no"?>
<!DOCTYPE svg PUBLIC "-//W3C//DTD SVG 1.1//EN" "http://www.w3.org/Graphics/SVG/1.1/DTD/svg11.dtd">
<svg xmlns="http://www.w3.org/2000/svg" version="1.1" viewBox="0.00 0.00 311.00 316.00">
<path fill="#111111" d="
  M 306.67 183.53
  C 299.20 224.59 276.16 260.12 242.33 283.31
  C 213.20 303.29 176.79 312.99 141.26 309.24
  C 63.61 301.06 5.21 237.24 3.93 159.00
  C 2.87 94.00 44.60 35.76 104.77 13.98
  C 159.29 -5.76 221.54 7.70 262.84 48.52
  Q 298.99 84.23 306.97 134.97
  C 308.57 145.15 308.03 156.49 307.97 167.23
  Q 307.91 176.67 306.67 183.53
  Z
  M 307.22 157.46
  A 150.88 150.88 0.0 0 0 156.34 6.58
  A 150.88 150.88 0.0 0 0 5.46 157.46
  A 150.88 150.88 0.0 0 0 156.34 308.34
  A 150.88 150.88 0.0 0 0 307.22 157.46
  Z"
/>
<path fill="#111111" d="
  M 300.34 157.46
  A 143.89 143.89 0.0 0 1 156.45 301.35
  A 143.89 143.89 0.0 0 1 12.56 157.46
  A 143.89 143.89 0.0 0 1 156.45 13.57
  A 143.89 143.89 0.0 0 1 300.34 157.46
  Z
  M 146.77 139.49
  Q 146.50 137.98 147.38 139.24
  Q 149.02 141.59 151.71 142.68
  Q 152.84 143.13 151.97 142.28
  Q 148.72 139.04 146.66 134.90
  A 0.34 0.33 72.3 0 1 146.90 134.42
  L 147.23 134.37
  A 0.56 0.55 -23.6 0 1 147.75 134.57
  Q 148.37 135.37 149.22 135.90
  Q 149.98 136.36 149.51 135.61
  L 147.08 131.75
  Q 146.81 131.31 147.26 131.08
  Q 147.40 131.00 147.57 130.96
  Q 148.02 130.85 147.79 130.44
  Q 145.92 127.13 145.62 123.32
  Q 145.58 122.82 146.04 122.61
  L 164.53 114.04
  Q 164.96 113.84 164.95 114.32
  C 164.80 120.23 165.26 124.24 163.31 129.73
  Q 162.90 130.89 164.21 130.41
  Q 164.70 130.22 165.15 130.51
  A 0.20 0.19 64.2 0 1 165.03 130.87
  Q 164.87 130.85 164.72 130.83
  Q 164.33 130.78 164.18 131.14
  L 163.34 133.16
  Q 163.06 133.86 163.64 133.38
  Q 166.80 130.83 169.15 127.53
  C 171.89 123.70 170.65 117.02 169.55 112.77
  Q 169.40 112.21 169.95 112.01
  Q 181.89 107.80 194.42 105.91
  A 0.61 0.61 0.0 0 0 194.81 104.92
  Q 194.59 104.65 194.12 104.52
  Q 180.85 100.71 167.25 103.05
  Q 166.76 103.14 166.54 102.69
  C 163.65 96.64 158.96 91.90 152.14 91.87
  C 141.69 91.82 137.56 102.29 139.09 111.18
  Q 139.18 111.67 138.73 111.88
  Q 126.86 117.53 118.09 127.34
  Q 117.21 128.32 117.15 129.16
  Q 117.07 130.09 118.00 129.96
  Q 128.50 128.50 138.57 125.20
  Q 139.12 125.02 139.19 125.59
  Q 140.25 134.54 146.48 140.97
  Q 147.17 141.69 146.99 140.71
  L 146.77 139.49
  Z
  M 158.34 118.73
  L 157.61 118.40
  Q 157.26 118.24 157.23 118.62
  Q 157.22 118.80 157.19 119.02
  A 0.40 0.40 0.0 0 0 157.40 119.43
  C 159.79 120.69 160.77 118.87 162.30 117.56
  Q 162.44 117.44 162.31 117.31
  L 162.12 117.12
  Q 162.08 117.08 162.04 117.12
  Q 160.59 118.31 158.75 118.77
  Q 158.54 118.82 158.34 118.73
  Z
  M 153.90 128.03
  Q 153.93 127.86 153.95 127.70
  A 0.23 0.23 0.0 0 0 153.68 127.43
  Q 152.32 127.69 151.42 128.71
  A 0.70 0.69 40.3 0 0 151.51 129.71
  Q 154.43 132.02 157.21 129.71
  A 0.80 0.80 0.0 0 0 156.76 128.30
  Q 156.08 128.26 155.70 127.77
  A 0.48 0.48 0.0 0 0 154.88 127.86
  Q 154.68 128.31 154.12 128.30
  A 0.23 0.23 0.0 0 1 153.90 128.03
  Z
  M 102.36 212.44
  A 0.33 0.33 0.0 0 0 102.03 212.11
  L 74.23 212.12
  A 0.33 0.33 0.0 0 1 73.96 211.60
  L 101.81 173.02
  A 0.33 0.33 0.0 0 0 101.87 172.82
  L 101.89 163.33
  A 0.33 0.33 0.0 0 0 101.56 163.00
  L 58.94 163.00
  A 0.33 0.33 0.0 0 0 58.61 163.33
  L 58.60 173.66
  A 0.33 0.33 0.0 0 0 58.93 173.99
  L 86.51 174.00
  A 0.33 0.33 0.0 0 1 86.78 174.52
  L 58.68 213.21
  A 0.33 0.33 0.0 0 0 58.62 213.41
  L 58.62 222.74
  A 0.33 0.33 0.0 0 0 58.95 223.07
  L 102.03 223.05
  A 0.33 0.33 0.0 0 0 102.36 222.72
  L 102.36 212.44
  Z
  M 128.82 212.13
  A 0.31 0.31 0.0 0 1 128.51 211.82
  L 128.50 198.81
  A 0.31 0.31 0.0 0 1 128.81 198.50
  L 147.94 198.51
  A 0.31 0.31 0.0 0 0 148.25 198.20
  L 148.25 187.91
  A 0.31 0.31 0.0 0 0 147.94 187.60
  L 128.81 187.63
  A 0.31 0.31 0.0 0 1 128.50 187.32
  L 128.50 174.30
  A 0.31 0.31 0.0 0 1 128.81 173.99
  L 150.44 173.98
  A 0.31 0.31 0.0 0 0 150.75 173.67
  L 150.77 163.42
  A 0.31 0.31 0.0 0 0 150.46 163.11
  L 116.23 163.11
  A 0.31 0.31 0.0 0 0 115.92 163.42
  L 115.93 222.74
  A 0.31 0.31 0.0 0 0 116.24 223.05
  L 150.45 223.05
  A 0.31 0.31 0.0 0 0 150.76 222.74
  L 150.76 212.41
  A 0.31 0.31 0.0 0 0 150.45 212.10
  L 128.82 212.13
  Z
  M 205.52 212.43
  A 0.33 0.33 0.0 0 0 205.19 212.10
  L 177.24 212.12
  A 0.33 0.33 0.0 0 1 176.97 211.60
  L 204.82 173.07
  A 0.33 0.33 0.0 0 0 204.88 172.87
  L 204.89 163.33
  A 0.33 0.33 0.0 0 0 204.56 163.00
  L 162.08 163.00
  A 0.33 0.33 0.0 0 0 161.75 163.33
  L 161.76 173.66
  A 0.33 0.33 0.0 0 0 162.09 173.99
  L 189.54 173.99
  A 0.33 0.33 0.0 0 1 189.81 174.51
  L 161.69 213.25
  A 0.33 0.33 0.0 0 0 161.63 213.45
  L 161.64 222.73
  A 0.33 0.33 0.0 0 0 161.97 223.06
  L 205.17 223.05
  A 0.33 0.33 0.0 0 0 205.50 222.72
  L 205.52 212.43
  Z
  M 231.81 212.13
  A 0.31 0.31 0.0 0 1 231.50 211.82
  L 231.50 198.81
  A 0.31 0.31 0.0 0 1 231.81 198.50
  L 250.93 198.50
  A 0.31 0.31 0.0 0 0 251.24 198.19
  L 251.24 187.92
  A 0.31 0.31 0.0 0 0 250.93 187.61
  L 231.81 187.63
  A 0.31 0.31 0.0 0 1 231.50 187.32
  L 231.50 174.30
  A 0.31 0.31 0.0 0 1 231.81 173.99
  L 253.44 173.99
  A 0.31 0.31 0.0 0 0 253.75 173.68
  L 253.77 163.42
  A 0.31 0.31 0.0 0 0 253.46 163.11
  L 219.23 163.11
  A 0.31 0.31 0.0 0 0 218.92 163.42
  L 218.93 222.74
  A 0.31 0.31 0.0 0 0 219.24 223.05
  L 253.44 223.06
  A 0.31 0.31 0.0 0 0 253.75 222.75
  L 253.77 212.41
  A 0.31 0.31 0.0 0 0 253.46 212.10
  L 231.81 212.13
  Z"
/>
</svg>
